<svg width="457" height="244" viewBox="0 0 457 244" fill="none" xmlns="http://www.w3.org/2000/svg">
<g clip-path="url(#clip0_15_523)">
<path d="M86.2627 27.5632V0H72.2259C39.0479 0 22.7142 20.6724 22.7142 54.8713V64.8247H0V88.3045H22.7142V184.01H52.3191V88.3045H78.8615V64.8247H52.3191V53.34C52.0639 38.7927 57.9339 27.5632 78.0959 27.5632H86.2627Z" fill="#E71C35"/>
<path d="M143.8 187.073C164.472 187.073 181.316 177.885 192.29 164.103L171.363 147.514C165.238 154.916 155.029 159.51 144.31 159.51C123.638 159.51 108.835 144.197 108.835 124.29C108.835 104.128 123.638 89.3253 144.31 89.3253C155.029 89.3253 165.238 93.9192 171.363 101.32L192.29 84.7315C181.316 70.9498 164.472 61.7621 143.8 61.7621C109.346 61.7621 78.9749 86.518 78.9749 124.29C78.9749 162.062 109.346 187.073 143.8 187.073Z" fill="#E71C35"/>
<path d="M247.982 65.6759L264.248 93.1819L237.488 119.941L215.868 97.393L247.869 65.5625L215.008 32.7029L237.659 10.0524L270.124 42.5179L302.591 10.0524L325.242 32.7029L292.775 65.1684L325.241 97.6351L302.591 120.282L247.982 65.6759Z" fill="#7AC143"/>
<path d="M351.191 236.105H330.594V222.723H351.191C353.247 222.723 357.19 222.48 360.521 220.847C363.787 219.245 365.444 216.802 365.444 213.584C365.444 209.668 362.766 207.185 360.521 205.792C357.703 204.091 354.482 203.176 351.191 203.14H330.594V190.52H351.191C355.385 190.52 358.538 189.697 360.561 188.072C361.411 187.39 362.089 186.518 362.54 185.526C362.991 184.534 363.203 183.45 363.159 182.361C363.096 180.114 362.182 177.975 360.602 176.377C358.459 174.17 355.204 173.004 351.191 173.004H330.594V159.949H351.191C354.71 159.911 358.218 160.346 361.622 161.241C364.624 162.022 367.446 163.378 369.931 165.235C372.296 167.043 374.182 169.403 375.425 172.108C376.797 175.234 377.475 178.621 377.41 182.034C377.455 184.983 376.658 187.884 375.113 190.396C373.274 193.223 370.624 195.428 367.511 196.722C371.521 198.001 374.895 200.757 376.949 204.432C378.623 207.241 379.568 210.425 379.695 213.693C379.784 217.372 379.019 221.022 377.46 224.355C376.065 227.152 373.962 229.534 371.36 231.264C366.602 234.476 359.818 236.105 351.191 236.105Z" fill="#53565A"/>
<path d="M261.371 208.204L282.835 160.351H297.667L318.877 207.638C313.591 206.835 308.416 206.233 303.493 205.849L290.252 175.492L276.897 206.1C271.818 206.585 266.594 207.292 261.369 208.201L261.371 208.204Z" fill="#53565A"/>
<path d="M216.68 159.966C216.68 159.966 216.68 186.137 216.68 203.86C216.68 214.384 217.717 220.355 224.988 227.964C232.844 236.184 239.848 236.695 251.219 236.695C259.017 236.695 270.61 236.695 270.61 236.695V223.323C270.61 223.323 257.599 223.323 251.219 223.323C244.838 223.323 239.876 222.292 235.622 218.039C231.369 213.785 231.148 210.241 231.148 203.86C231.148 197.48 231.148 159.966 231.148 159.966H216.68Z" fill="#53565A"/>
<path d="M454.303 174.355C448.265 162.053 435.393 158.521 422.977 158.521C408.28 158.635 392.107 165.356 392.107 181.759C392.107 199.644 407.144 203.972 423.433 205.909C434.027 207.048 441.886 210.122 441.886 217.641C441.886 226.298 433.001 229.601 423.546 229.601C413.863 229.601 404.637 225.729 401.107 216.957L388.575 223.452C394.499 238.032 407.029 243.045 423.318 243.045C441.088 243.045 456.809 235.413 456.809 217.642C456.809 198.619 441.316 194.29 424.685 192.24C415.116 191.101 406.915 189.164 406.915 182.216C406.915 176.292 412.268 171.622 423.432 171.622C432.089 171.622 439.608 175.95 442.341 180.507L454.303 174.355Z" fill="#53565A"/>
</g>
<defs>
<clipPath id="clip0_15_523">
<rect width="457" height="244" fill="white"/>
</clipPath>
</defs>
</svg>
