<svg width="180" height="104" viewBox="0 0 180 104" fill="none" xmlns="http://www.w3.org/2000/svg">
<path d="M48 15.2788V0H40.1894C21.7278 0 12.6391 11.4591 12.6391 30.4161V35.9335H0V48.9487H12.6391V102H29.1124V48.9487H43.8817V35.9335H29.1124V29.5673C28.9704 21.5035 32.2367 15.2788 43.4557 15.2788H48Z" fill="#E71C35"/>
<path d="M79.4689 104C90.7795 104 99.9956 98.8675 106 91.1687L94.5499 81.9019C91.1986 86.0368 85.6128 88.603 79.7479 88.603C68.4373 88.603 60.3379 80.049 60.3379 68.9287C60.3379 57.666 68.4373 49.3971 79.7479 49.3971C85.6128 49.3971 91.1986 51.9633 94.5499 56.0975L106 46.8309C99.9956 39.1323 90.7795 34 79.4689 34C60.6175 34 44 47.8289 44 68.9287C44 90.0286 60.6175 104 79.4689 104Z" fill="#E71C35"/>
<path d="M137.247 36.7815L146.248 52.0031L131.44 66.8113L119.476 54.3334L137.184 36.7188L119 18.5346L131.534 6L149.499 23.9661L167.466 6L180 18.5346L162.034 36.5007L179.999 54.4674L167.466 67L137.247 36.7815Z" fill="#7AC143"/>
</svg>
